# xmcd CD database file
#
# Track frame offsets:
#	150
#	12788
#	24663
#	35750
#	52100
#	68213
#	81325
#	92725
#	106200
#	117400
#	129888
#	141475
#	154363
#	165138
#	178113
#	190838
#	201250
#	210900
#	222300
#	238438
#	253963
#	267000
#	280000
#	292575
#	305775
#
# Disc length: 4278 seconds
#
# Revision: 0
# Processed by: cddbd v1.5.2PL0 Copyright (c) Steve Scherf et al.
# Submitted via: CDex 1.70beta2
#
DISCID=7410b419
DTITLE=Various Artist - Single Girl - 25 Country Classics
DYEAR=1994
DGENRE=Country
TTITLE0=Wanda Jackson - Crazy
TTITLE1=Billie Jo Spears - Ease The Want In Me
TTITLE2=Patsy Cline - Stop The World And Let Me Off
TTITLE3=Lynn Anderson - When I Dream
TTITLE4=Anne Murray - Both Sides Now
TTITLE5=Donna Fargo - Daddy
TTITLE6=Jeannie C Riley - Box Of Memories
TTITLE7=Patti Page - Tennessee Waltz
TTITLE8=Sandy posey - Single Girl
TTITLE9=Donna West - Last Days Of love
TTITLE10=Dolly Parton - Letter To Heaven
TTITLE11=Billie Jo Spears - Dallas
TTITLE12=Patsy Cline - I Can See An Angel
TTITLE13=Wanda Jackson - Raining In My Heart
TTITLE14=Lynn Anderson - I Fall To Pieces
TTITLE15=Anne Murray - It's Over
TTITLE16=Jeannie C Riley - He Made A Woman Out Of Me
TTITLE17=Patsy Cline - Cry Not For Me
TTITLE18=Jerry Lee Lewis - You Win Again
TTITLE19=Kenny Rogers - For The Good Times
TTITLE20=Ernest Tubb - Do What You Do Do Well
TTITLE21=Ferlin Husky - Behind Closed Doors
TTITLE22=Willie Nelson - Shelter Of Your Arms
TTITLE23=Jack greene - California Turnaround
TTITLE24=Carl Smith - I Just Loved Her For The Last Time
EXTD=YEAR: 1994
EXTT0=
EXTT1=
EXTT2=
EXTT3=
EXTT4=
EXTT5=
EXTT6=
EXTT7=
EXTT8=
EXTT9=
EXTT10=
EXTT11=
EXTT12=
EXTT13=
EXTT14=
EXTT15=
EXTT16=
EXTT17=
EXTT18=
EXTT19=
EXTT20=
EXTT21=
EXTT22=
EXTT23=
EXTT24=
PLAYORDER=
